HIERARCHY
ROOT Hips
{
	OFFSET 0.000000 0.000000 0.000000
	CHANNELS 6 Xposition Yposition Zposition Zrotation Yrotation Xrotation 
	JOINT LHipJoint
	{
		OFFSET 0.000000 0.000000 0.000000
		CHANNELS 3 Zrotation Yrotation Xrotation
		JOINT LeftUpLeg
		{
			OFFSET 1.363060 -1.794630 0.839290
			CHANNELS 3 Zrotation Yrotation Xrotation
			JOINT LeftLeg
			{
				OFFSET 2.448110 -6.726130 0.000000
				CHANNELS 3 Zrotation Yrotation Xrotation
				JOINT LeftFoot
				{
					OFFSET 2.562200 -7.039590 0.000000
					CHANNELS 3 Zrotation Yrotation Xrotation
					JOINT LeftToeBase
					{
						OFFSET 0.157640 -0.433110 2.322550
						CHANNELS 3 Zrotation Yrotation Xrotation
						End Site
						{
							OFFSET 0.000000 0.000000 0.000000
						}
					}
				}
			}
		}
	}
	JOINT RHipJoint
	{
		OFFSET 0.000000 0.000000 0.000000
		CHANNELS 3 Zrotation Yrotation Xrotation
		JOINT RightUpLeg
		{
			OFFSET -1.305520 -1.794630 0.839290
			CHANNELS 3 Zrotation Yrotation Xrotation
			JOINT RightLeg
			{
				OFFSET -2.542530 -6.985550 0.000000
				CHANNELS 3 Zrotation Yrotation Xrotation
				JOINT RightFoot
				{
					OFFSET -2.568260 -7.056230 0.000000
					CHANNELS 3 Zrotation Yrotation Xrotation
					JOINT RightToeBase
					{
						OFFSET -0.164730 -0.452590 2.363150
						CHANNELS 3 Zrotation Yrotation Xrotation
						End Site
						{
							OFFSET 0.000000 0.000000 0.000000
						}
					}
				}
			}
		}
	}
}
MOTION
Frames: 25
Frame Time: 0.008333
2.339665 17.208494 -1.216160 129.001543 -85.599383 -122.061210 -10.754671 -1.016758 -0.748830 -0.705474 -0.384764 -29.804794 0.698254 2.022277 45.317113 3.496156 23.453422 18.232622 9.805100 -0.000000 -54.912500 9.173895 -0.239061 -1.064994 7.834396 2.989082 -13.484854 1.509431 -1.269223 22.138926 -2.082484 -8.514417 -9.371947 -0.152800 -0.000000 -53.872500
2.361290 17.211212 -1.252843 127.783113 -85.357370 -121.143951 -10.692982 -1.167503 -0.730908 -0.782613 -0.963724 -31.105760 0.779060 2.097929 47.731490 3.537452 23.459796 20.388781 10.462400 0.000000 -53.625900 9.261862 -0.193845 -1.126292 7.616831 2.977097 -13.187023 1.471260 -1.299000 22.216024 -2.084799 -8.541977 -9.373766 -0.149900 -0.000000 -53.903300
2.383518 17.214008 -1.288851 126.407820 -85.107422 -120.057934 -10.617585 -1.321020 -0.716155 -0.901732 -1.559527 -32.443571 0.844927 2.172338 50.106877 3.570227 23.380053 22.288431 10.982200 0.000000 -52.181800 9.360003 -0.141892 -1.178144 7.368232 3.014591 -12.916491 1.423143 -1.331796 22.329928 -2.101133 -8.637725 -9.386192 -0.147400 0.000000 -53.917600
2.406130 17.216782 -1.324149 124.914613 -84.850152 -118.841481 -10.530062 -1.473472 -0.706914 -1.065129 -2.162380 -33.822078 0.901884 2.251235 52.457609 3.593906 23.237311 23.832737 11.347000 0.000001 -50.812301 9.468545 -0.083697 -1.220667 7.090906 3.094556 -12.674957 1.366062 -1.367465 22.482945 -2.129941 -8.793794 -9.410537 -0.144800 -0.000000 -53.914300
2.429041 17.219351 -1.358593 123.361251 -84.588951 -117.554038 -10.434253 -1.621982 -0.706428 -1.271221 -2.751905 -35.253380 0.957669 2.341170 54.809144 3.606544 23.040415 24.913502 11.533000 0.000000 -49.456699 9.585223 -0.020683 -1.253228 6.793026 3.211876 -12.463009 1.301659 -1.405285 22.672989 -2.169831 -9.003263 -9.446514 -0.141800 -0.000000 -53.892800
2.451971 17.221674 -1.392167 121.776345 -84.326880 -116.223022 -10.332973 -1.765010 -0.716026 -1.518419 -3.314595 -36.745170 1.020260 2.445863 57.177400 3.608876 22.815289 25.469146 11.542900 0.000000 -48.235600 9.708755 0.045610 -1.276602 6.480696 3.354688 -12.279630 1.231848 -1.444485 22.895705 -2.218304 -9.253737 -9.492967 -0.138100 0.000000 -53.856000
2.474983 17.223709 -1.425035 120.146316 -84.065662 -114.839410 -10.226656 -1.901790 -0.736425 -1.809517 -3.843769 -38.298501 1.096065 2.566417 59.567407 3.602477 22.590255 25.472396 11.392000 0.000000 -47.201200 9.840604 0.114824 -1.293567 6.153833 3.503756 -12.122648 1.158292 -1.484752 23.146810 -2.271827 -9.528100 -9.548201 -0.133100 0.000000 -53.810700
2.497804 17.225437 -1.457245 118.484051 -83.809624 -113.414035 -10.116959 -2.033523 -0.766367 -2.138752 -4.333049 -39.919833 1.189321 2.702523 61.982190 3.589057 22.382523 24.930559 11.096900 0.000000 -46.480001 9.979049 0.185518 -1.305194 5.818903 3.647435 -11.990946 1.082869 -1.525031 23.418833 -2.328112 -9.815138 -9.610438 -0.126800 0.000000 -53.761100
2.520473 17.226858 -1.488971 116.781294 -83.562008 -111.940185 -10.003896 -2.161612 -0.804514 -2.501734 -4.779778 -41.613876 1.301856 2.852794 64.417955 3.568844 22.189869 23.866395 10.664500 -0.000000 -45.937301 10.123752 0.257055 -1.313144 5.479984 3.774038 -11.883270 1.006966 -1.564684 23.706062 -2.385017 -10.104645 -9.677877 -0.119000 0.000000 -53.711001
2.542827 17.228039 -1.520417 115.025400 -83.325651 -110.401846 -9.886344 -2.287916 -0.847890 -2.891801 -5.188432 -43.383822 1.432847 3.014305 66.862789 3.542259 22.003192 22.343233 10.107801 0.000000 -45.510500 10.274587 0.329065 -1.318839 5.140141 3.874236 -11.799250 0.931558 -1.602956 24.002608 -2.441067 -10.389506 -9.749178 -0.109700 0.000000 -53.663100
2.564930 17.228971 -1.551867 113.190716 -83.102030 -108.773044 -9.761794 -2.414342 -0.893214 -3.302576 -5.568224 -45.232011 1.579460 3.183540 69.300302 3.509054 21.803264 20.450148 9.441400 -0.000000 -45.123501 10.432524 0.402207 -1.324105 4.799875 3.939908 -11.739365 0.857120 -1.639475 24.305728 -2.495117 -10.664167 -9.824324 -0.098699 0.000000 -53.619900
2.586815 17.229669 -1.583455 111.275078 -82.893692 -107.047685 -9.628885 -2.543786 -0.936347 -3.720285 -5.929939 -47.163906 1.737888 3.357095 71.713406 3.468844 21.565803 18.303109 8.687800 -0.000000 -44.764600 10.595781 0.476643 -1.329445 4.465235 3.973041 -11.704671 0.783896 -1.673635 24.612035 -2.547783 -10.931831 -9.902110 -0.086400 0.000000 -53.578400
2.608530 17.230133 -1.615342 109.265153 -82.701387 -105.210031 -9.485215 -2.678318 -0.973642 -4.133692 -6.287242 -49.182685 1.904378 3.531818 74.085456 3.420995 21.267752 16.028013 7.877400 -0.000000 -44.445101 10.764085 0.553417 -1.336371 4.138648 3.973619 -11.695651 0.711866 -1.705246 24.921251 -2.599409 -11.194103 -9.983088 -0.072700 0.000000 -53.537000
2.630223 17.230288 -1.647699 107.144510 -82.522335 -103.243648 -9.327708 -2.818550 -1.002434 -4.535759 -6.654075 -51.289280 2.076080 3.705335 76.403195 3.364284 20.888170 13.740485 7.043200 -0.000000 -44.117200 10.938832 0.634435 -1.347240 3.817663 3.938434 -11.711860 0.640630 -1.734412 25.234745 -2.649688 -11.449807 -10.066887 -0.057600 0.000000 -53.496800
2.651863 17.230094 -1.680737 104.902664 -82.348708 -101.138082 -9.152512 -2.963227 -1.020190 -4.926180 -7.045451 -53.481949 2.251196 3.875627 78.655503 3.298298 20.419178 11.545454 6.223200 -0.000000 -43.763400 11.123473 0.722378 -1.365013 3.492399 3.857157 -11.754411 0.569682 -1.761387 25.556648 -2.696600 -11.689209 -10.154038 -0.040700 0.000000 -53.461400
2.673620 17.229429 -1.713747 102.611420 -82.192275 -98.963194 -8.966407 -3.117924 -1.027357 -5.270191 -7.456596 -55.764659 2.430610 4.042986 80.841947 3.222060 19.848826 9.536766 5.449800 0.000001 -43.626800 11.304842 0.814277 -1.389138 3.193536 3.762730 -11.811661 0.500202 -1.785634 25.878183 -2.745659 -11.939795 -10.240616 -0.023600 0.000000 -53.422000
2.695718 17.228146 -1.746543 100.284421 -82.049853 -96.738384 -8.769681 -3.282404 -1.025335 -5.562500 -7.889549 -58.129320 2.615253 4.207026 82.960604 3.135398 19.182050 7.764003 4.746600 0.000000 -43.759700 11.481851 0.910886 -1.422844 2.921011 3.654577 -11.876044 0.432478 -1.807693 26.199195 -2.796126 -12.198470 -10.325325 -0.006500 0.000000 -53.383600
2.717867 17.226265 -1.779618 97.908876 -81.896294 -94.457770 -8.555403 -3.448449 -1.014312 -5.835424 -8.355751 -60.560687 2.805064 4.366935 85.009595 3.040248 18.444766 6.224021 4.124200 0.000000 -43.882599 11.667132 1.017172 -1.472216 2.634905 3.486801 -11.951018 0.365817 -1.828419 26.528688 -2.838431 -12.419065 -10.407998 0.011901 0.000000 -53.370300
2.740377 17.223649 -1.811640 95.587482 -81.756545 -92.226539 -8.337091 -3.624968 -1.000247 -6.044453 -8.827711 -63.053678 3.002847 4.524529 86.997819 2.937085 17.642560 4.920275 3.583299 -0.000000 -44.326800 11.839197 1.125438 -1.535201 2.386097 3.313372 -12.012535 0.302899 -1.847588 26.848977 -2.881152 -12.644216 -10.482485 0.028800 -0.000000 -53.375100
2.762806 17.220363 -1.843208 93.319090 -81.600392 -90.051722 -8.107811 -3.802328 -0.983826 -6.233892 -9.312550 -65.589849 3.207543 4.679252 88.924753 2.830785 16.821175 3.797752 3.117700 -0.000000 -44.746800 12.012215 1.240203 -1.617292 2.126863 3.077270 -12.066775 0.243327 -1.865843 27.167276 -2.912221 -12.815321 -10.548481 0.045600 0.000000 -53.427299
2.785457 17.216315 -1.873125 91.182010 -81.452701 -88.015592 -7.878987 -3.988558 -0.971452 -6.372196 -9.780202 -68.160634 3.420633 4.832322 90.796355 2.724216 16.002531 2.822133 2.717800 0.000000 -45.410700 12.168376 1.353488 -1.715370 1.899309 2.825470 -12.094295 0.189676 -1.883447 27.468993 -2.938642 -12.966884 -10.601846 0.060100 0.000000 -53.530600
2.806207 17.210635 -1.900948 84.874584 -81.424256 -81.938676 -7.610336 -4.103951 -0.810005 -6.368068 -11.025556 -70.731681 3.653734 4.961620 92.593013 2.638613 15.314376 2.069452 2.419100 0.000001 -45.891200 12.376340 1.540024 -2.083410 1.757102 1.506467 -11.827650 0.167084 -1.864426 27.538743 -2.901791 -12.843973 -10.615884 0.076000 0.000000 -53.800600
2.828161 17.205326 -1.928400 83.214872 -81.224773 -80.412962 -7.377974 -4.288246 -0.815447 -6.498910 -11.437147 -73.317780 3.876676 5.108871 94.340562 2.548758 14.638341 1.186568 2.112100 -0.000000 -46.358899 12.515034 1.654339 -2.216748 1.509005 1.148561 -11.802522 0.124774 -1.881376 27.812240 -2.899430 -12.859935 -10.643765 0.087500 -0.000000 -54.078300
2.849132 17.199545 -1.954110 81.760303 -81.013344 -79.107482 -7.143882 -4.472085 -0.828576 -6.642436 -11.818450 -75.905014 4.102942 5.254700 96.028139 2.475278 14.090467 0.267077 1.837500 0.000000 -46.420600 12.645711 1.764373 -2.363951 1.242696 0.722447 -11.759414 0.090432 -1.898634 28.069092 -2.878753 -12.786924 -10.661735 0.098200 0.000000 -54.444600
2.869252 17.193182 -1.977547 80.526225 -80.812019 -78.035491 -6.914257 -4.662289 -0.850919 -6.770620 -12.148778 -78.495587 4.331808 5.399141 97.648967 2.422023 13.690333 -0.687132 1.592500 0.000000 -46.351900 12.755953 1.863061 -2.517749 0.995878 0.278333 -11.693338 0.064867 -1.916566 28.303674 -2.848056 -12.664858 -10.669328 0.107101 0.000000 -54.916300
